<?xml version="1.0" standalone="no"?>
<!DOCTYPE svg PUBLIC "-//W3C//DTD SVG 20010904//EN"
 "http://www.w3.org/TR/2001/REC-SVG-20010904/DTD/svg10.dtd">
<svg version="1.0" xmlns="http://www.w3.org/2000/svg"
 width="2636.000000pt" height="2636.000000pt" viewBox="0 0 2636.000000 2636.000000"
 preserveAspectRatio="xMidYMid meet">
<metadata>
Created by potrace 1.14, written by Peter Selinger 2001-2017
</metadata>
<g transform="translate(0.000000,2636.000000) scale(0.100000,-0.100000)"
fill="#000000" stroke="none">
<path d="M6586 19769 l-6588 -6589 6591 -6591 6591 -6591 6591 6591 6591 6591
-6590 6590 c-3624 3624 -6591 6590 -6593 6590 -2 -1 -2969 -2966 -6593 -6591z
m12979 -209 l6380 -6380 -6383 -6383 -6382 -6382 -6382 6382 -6383 6383 6380
6380 c3509 3509 6382 6380 6385 6380 3 0 2876 -2871 6385 -6380z"/>
<path d="M12967 19174 c-1 -1 -63 -5 -137 -9 -211 -10 -478 -33 -580 -49 -14
-2 -47 -7 -75 -11 -70 -9 -116 -16 -144 -20 -59 -10 -95 -89 -67 -144 29 -55
71 -59 281 -25 31 5 193 22 270 29 39 4 84 8 100 10 220 26 977 26 1210 0 22
-2 72 -7 110 -10 83 -7 133 -13 240 -26 44 -6 94 -13 110 -15 32 -4 37 -5 190
-29 185 -30 430 -82 681 -146 116 -29 134 -31 162 -20 38 16 66 70 57 110 -12
54 -41 70 -189 106 -11 2 -74 18 -140 34 -155 38 -395 87 -571 115 -16 3 -43
7 -60 10 -64 10 -242 34 -310 41 -33 4 -71 8 -85 11 -14 2 -63 6 -110 10 -47
3 -101 7 -120 9 -126 13 -812 28 -823 19z"/>
<path d="M12868 18685 c-2 -2 -55 -6 -118 -10 -63 -3 -131 -8 -150 -10 -19 -2
-64 -7 -100 -10 -36 -4 -83 -9 -105 -11 -22 -3 -53 -7 -70 -9 -16 -1 -68 -8
-115 -15 -47 -6 -101 -13 -120 -16 -19 -3 -58 -9 -86 -15 -28 -5 -64 -12 -80
-15 -16 -2 -40 -7 -54 -9 -14 -3 -36 -7 -50 -10 -71 -14 -127 -25 -145 -29
-11 -2 -54 -12 -95 -21 -157 -33 -482 -122 -573 -157 -56 -22 -74 -103 -33
-151 34 -40 75 -41 186 -7 93 28 293 84 341 94 13 3 94 21 179 40 125 29 427
84 550 101 87 12 111 15 160 20 30 3 71 8 90 10 107 12 266 25 390 31 98 4
605 4 695 -1 136 -7 312 -20 395 -30 19 -2 60 -7 90 -10 30 -4 66 -8 80 -10
14 -2 75 -11 135 -19 61 -9 120 -18 131 -20 12 -2 37 -7 55 -10 252 -43 586
-122 839 -199 253 -78 531 -180 768 -281 146 -62 171 -65 212 -21 29 31 34 79
13 116 -19 32 -109 75 -388 184 -253 100 -716 248 -872 281 -7 1 -42 9 -78 18
-214 52 -479 105 -610 122 -16 2 -59 8 -95 13 -88 14 -155 22 -215 27 -27 2
-63 6 -80 8 -16 3 -70 8 -120 11 -49 4 -108 9 -130 12 -47 5 -822 13 -827 8z"/>
<path d="M13027 18203 c-1 0 -67 -4 -147 -7 -80 -4 -163 -8 -185 -11 -22 -2
-69 -7 -105 -10 -89 -8 -245 -25 -268 -30 -11 -2 -43 -6 -73 -10 -114 -13
-362 -59 -594 -110 -363 -80 -912 -265 -1265 -428 -76 -35 -100 -61 -100 -107
0 -51 49 -100 99 -100 11 0 55 16 98 36 351 160 917 346 1313 429 109 23 318
62 370 70 25 3 70 10 100 15 30 5 80 12 110 15 30 3 66 8 80 10 14 2 59 7 100
10 41 4 95 8 120 10 25 2 88 7 140 11 190 15 800 8 959 -11 14 -2 60 -6 101
-10 41 -3 86 -8 100 -10 14 -2 63 -9 110 -15 143 -18 161 -21 295 -45 796
-144 1569 -431 2245 -835 130 -77 167 -85 210 -42 36 36 42 96 13 130 -64 74
-675 390 -1038 537 -49 20 -99 40 -110 45 -142 63 -709 239 -886 275 -8 2 -44
10 -80 19 -122 30 -413 85 -539 101 -25 3 -56 8 -70 10 -14 2 -54 7 -90 11
-36 3 -72 7 -81 9 -8 2 -55 6 -105 10 -49 4 -100 8 -114 10 -76 11 -704 27
-713 18z"/>
<path d="M12938 17715 c-2 -1 -55 -6 -118 -10 -129 -8 -156 -10 -255 -19 -63
-6 -92 -9 -175 -21 -14 -2 -45 -7 -70 -10 -77 -11 -144 -22 -250 -41 -47 -9
-96 -18 -110 -20 -14 -3 -53 -11 -86 -19 -34 -8 -73 -16 -85 -19 -13 -2 -51
-11 -84 -19 -33 -9 -71 -18 -85 -21 -45 -8 -332 -94 -455 -135 -430 -144 -877
-351 -1257 -583 -73 -44 -99 -66 -107 -88 -28 -82 46 -157 124 -125 17 7 60
31 98 54 37 22 70 41 73 41 3 0 18 8 32 18 67 47 574 302 599 302 2 0 29 11
58 25 132 60 395 156 606 221 83 25 157 47 163 48 6 2 31 8 56 15 25 7 52 14
60 16 8 2 44 11 80 20 36 9 74 19 85 21 11 2 74 15 140 29 66 13 134 27 150
30 74 13 223 36 260 41 22 2 57 7 78 9 157 21 270 30 467 41 206 10 578 5 750
-11 25 -2 79 -7 120 -10 41 -4 86 -8 100 -10 14 -2 50 -7 80 -10 30 -3 66 -8
80 -10 14 -2 45 -7 70 -10 217 -31 558 -105 780 -170 30 -9 71 -20 91 -25 69
-18 422 -142 527 -186 59 -25 112 -46 117 -48 6 -1 36 -15 69 -29 32 -15 60
-27 63 -27 8 0 379 -188 441 -224 35 -20 65 -36 67 -36 1 0 55 -32 120 -70
202 -121 431 -278 638 -438 119 -91 152 -99 204 -47 35 35 36 41 23 112 -3 17
-287 232 -473 357 -163 110 -363 231 -512 311 -49 26 -113 60 -140 75 -43 23
-257 124 -375 178 -124 56 -432 173 -580 220 -179 57 -526 150 -623 167 -15 3
-58 12 -95 19 -89 19 -255 48 -352 61 -25 3 -56 8 -70 10 -14 2 -47 6 -75 9
-108 13 -124 15 -320 32 -50 5 -713 13 -717 9z"/>
<path d="M13157 17234 c-1 -1 -85 -4 -187 -8 -102 -4 -196 -9 -210 -10 -14 -2
-66 -7 -115 -10 -50 -4 -97 -9 -105 -11 -8 -2 -40 -6 -70 -10 -30 -3 -66 -7
-80 -10 -14 -2 -70 -11 -125 -20 -782 -127 -1526 -408 -2205 -833 -184 -115
-463 -315 -584 -418 -73 -63 -85 -113 -38 -165 22 -24 36 -31 65 -31 41 0 67
14 142 77 139 118 478 352 645 447 25 14 90 51 144 82 213 122 537 270 806
369 191 71 555 180 680 203 14 3 45 10 70 15 62 15 74 17 170 35 47 9 94 18
105 20 20 4 126 20 200 29 22 3 51 8 65 10 22 4 72 9 210 21 261 23 788 23
975 0 17 -2 59 -7 95 -11 68 -6 114 -12 165 -20 17 -3 51 -7 76 -10 26 -3 58
-8 70 -10 38 -8 131 -24 169 -30 29 -4 63 -11 100 -20 3 -1 32 -7 65 -14 289
-62 724 -202 990 -317 44 -20 103 -45 130 -57 111 -48 438 -219 560 -292 431
-258 769 -520 1127 -875 90 -88 160 -149 180 -156 85 -30 155 76 100 153 -11
16 -88 95 -171 176 -731 711 -1591 1208 -2566 1483 -49 14 -97 27 -105 29 -8
2 -62 15 -120 29 -92 22 -223 50 -285 62 -59 10 -278 44 -330 50 -33 3 -69 8
-80 10 -11 2 -56 6 -100 10 -44 3 -93 7 -110 10 -63 8 -510 24 -518 18z"/>
<path d="M12998 16745 c-1 -1 -57 -6 -123 -10 -146 -8 -176 -11 -240 -19 -27
-3 -72 -9 -100 -12 -99 -11 -297 -45 -417 -70 -68 -14 -130 -27 -139 -29 -71
-14 -325 -87 -469 -134 -817 -270 -1527 -707 -2130 -1311 -246 -246 -267 -273
-257 -332 5 -27 43 -67 72 -74 42 -10 70 3 121 58 138 149 404 406 519 501
179 149 455 354 557 412 9 6 71 43 137 83 466 282 975 482 1591 626 63 15 249
48 340 61 25 3 56 8 70 10 14 2 50 6 80 10 30 3 71 8 90 10 234 28 817 28
1050 0 143 -18 217 -28 300 -41 107 -17 359 -69 435 -89 28 -8 86 -23 130 -35
44 -12 143 -42 220 -67 927 -301 1758 -860 2392 -1608 72 -85 243 -309 297
-387 67 -99 102 -119 164 -92 36 15 63 63 56 102 -8 41 -156 249 -323 452
-142 172 -263 303 -421 454 -52 50 -109 105 -127 122 -72 70 -312 265 -448
364 -83 61 -304 210 -312 210 -4 0 -14 6 -22 14 -47 41 -426 245 -636 341
-219 100 -650 254 -841 300 -11 3 -73 18 -139 34 -66 16 -147 34 -180 40 -86
16 -104 20 -123 25 -9 3 -39 8 -67 11 -92 12 -110 15 -131 20 -12 3 -48 7 -80
10 -33 3 -70 8 -83 10 -12 2 -60 7 -105 11 -44 3 -97 8 -116 10 -42 5 -587 14
-592 9z"/>
<path d="M13177 16264 c-1 -1 -78 -5 -172 -8 -171 -7 -190 -9 -300 -20 -54 -6
-78 -9 -165 -21 -14 -2 -43 -6 -65 -10 -23 -3 -52 -7 -65 -10 -13 -3 -42 -7
-64 -11 -22 -3 -43 -7 -46 -9 -3 -2 -26 -6 -50 -10 -25 -3 -70 -12 -100 -20
-30 -8 -68 -16 -85 -19 -16 -3 -55 -13 -85 -21 -30 -9 -64 -18 -75 -20 -89
-20 -401 -127 -570 -195 -127 -51 -415 -189 -525 -251 -764 -430 -1398 -1044
-1844 -1787 -43 -71 -48 -116 -19 -156 26 -37 100 -47 138 -19 6 5 33 44 60
88 136 224 361 531 504 689 186 206 351 365 566 545 273 229 704 493 1072 656
358 160 821 296 1188 350 22 4 67 10 100 15 33 5 87 12 120 15 33 4 71 8 84
10 140 23 703 23 871 0 19 -2 62 -7 95 -10 33 -3 71 -7 85 -10 14 -2 45 -7 70
-10 25 -3 56 -7 70 -10 13 -2 40 -7 60 -10 20 -3 45 -7 55 -9 135 -28 186 -39
220 -48 22 -5 50 -12 62 -14 95 -18 521 -157 638 -209 17 -7 57 -24 90 -38
454 -190 972 -525 1340 -867 360 -335 673 -723 888 -1100 11 -19 33 -57 49
-85 50 -87 162 -316 214 -434 28 -65 58 -120 70 -128 69 -44 154 1 154 82 0
56 -203 477 -341 705 -102 170 -227 353 -337 495 -48 61 -89 112 -92 115 -3 3
-18 21 -34 40 -99 122 -332 362 -466 482 -68 60 -98 85 -201 172 -77 64 -278
211 -397 290 -557 368 -1254 644 -1882 745 -36 6 -76 13 -89 16 -13 2 -49 7
-80 11 -31 3 -65 8 -76 10 -10 2 -49 6 -85 10 -36 3 -78 8 -95 10 -16 2 -106
6 -200 10 -247 9 -256 9 -258 8z"/>
<path d="M13077 15775 c-1 -1 -60 -5 -132 -9 -149 -7 -259 -19 -430 -47 -159
-25 -160 -25 -308 -60 -708 -165 -1359 -495 -1902 -961 -113 -98 -343 -321
-405 -394 -19 -23 -67 -79 -106 -125 -407 -480 -732 -1102 -889 -1699 -15 -58
-31 -117 -35 -131 -11 -36 -2 -74 26 -104 18 -19 33 -25 68 -25 59 0 87 33
111 132 47 195 157 512 248 708 70 154 82 178 155 310 369 671 910 1227 1577
1622 222 131 548 279 810 366 104 35 278 85 333 97 9 2 49 11 87 20 68 16 194
40 265 51 19 2 45 7 57 9 12 3 46 8 75 11 29 3 71 7 93 10 228 26 743 25 897
-1 13 -2 48 -6 78 -9 30 -3 109 -15 175 -26 790 -138 1510 -480 2109 -1002
162 -141 419 -410 501 -522 16 -22 35 -45 41 -51 18 -15 143 -188 211 -291
196 -296 385 -693 496 -1039 31 -95 131 -468 143 -529 9 -50 45 -214 54 -248
6 -20 13 -56 16 -80 12 -89 47 -128 115 -128 21 0 40 10 61 31 29 28 30 34 25
82 -3 29 -9 63 -12 77 -3 14 -7 36 -10 50 -7 36 -11 54 -35 160 -12 52 -24
106 -26 119 -3 14 -7 28 -9 31 -2 4 -7 22 -10 40 -3 19 -14 66 -25 105 -10 38
-30 114 -45 167 -158 596 -467 1186 -884 1688 -88 105 -360 386 -456 470 -145
127 -319 260 -477 365 -62 42 -118 80 -125 85 -7 6 -15 10 -18 10 -3 0 -29 15
-58 33 -295 187 -790 395 -1172 491 -212 53 -427 93 -595 112 -25 2 -58 6 -75
9 -82 11 -577 28 -588 20z"/>
<path d="M12920 15280 c-169 -16 -217 -22 -340 -42 -36 -6 -74 -12 -85 -13
-52 -8 -251 -53 -293 -66 -18 -6 -39 -12 -45 -13 -28 -6 -107 -29 -177 -53
-360 -122 -621 -246 -920 -437 -91 -57 -333 -233 -375 -272 -11 -11 -47 -41
-80 -69 -76 -63 -300 -286 -386 -385 -37 -41 -101 -120 -143 -175 -43 -55 -83
-107 -89 -115 -88 -111 -263 -407 -358 -604 -137 -284 -275 -691 -314 -926 -3
-19 -8 -42 -10 -50 -2 -8 -7 -30 -10 -47 -6 -39 -12 -76 -19 -118 -45 -269
-55 -732 -21 -1005 2 -19 7 -57 10 -85 3 -27 7 -59 9 -70 6 -33 15 -88 21
-125 10 -61 45 -220 79 -360 19 -74 37 -151 40 -170 3 -19 8 -46 11 -60 3 -13
7 -42 10 -65 4 -22 8 -51 10 -65 10 -68 18 -220 20 -355 1 -184 13 -212 89
-219 42 -4 82 21 98 63 10 26 13 316 4 381 -3 19 -8 64 -11 100 -13 143 -35
264 -90 485 -42 170 -77 349 -91 453 -3 26 -7 58 -9 71 -14 82 -20 227 -19
451 0 231 4 320 20 429 2 20 7 52 9 71 14 97 18 124 41 235 150 736 504 1396
1029 1920 152 152 181 178 296 271 478 386 1042 652 1644 773 55 11 120 23
145 27 25 3 52 8 60 9 34 6 109 15 175 21 39 3 90 7 115 10 54 5 461 5 510 0
19 -3 67 -7 105 -11 85 -7 107 -10 260 -36 453 -76 862 -223 1263 -455 57 -32
112 -64 122 -70 11 -6 28 -18 38 -27 10 -10 22 -17 26 -17 8 0 62 -37 166
-114 507 -376 900 -851 1170 -1411 63 -131 138 -317 177 -435 58 -179 173
-628 207 -810 2 -14 14 -72 26 -130 11 -58 23 -120 26 -139 3 -18 8 -43 10
-55 3 -18 13 -75 39 -236 14 -87 52 -380 60 -465 3 -33 8 -76 10 -95 3 -19 7
-68 10 -108 7 -87 18 -120 48 -141 48 -34 122 -16 145 34 10 21 8 129 -3 205
-2 19 -7 62 -10 95 -4 33 -8 76 -10 95 -3 19 -7 58 -10 85 -4 28 -8 61 -10 75
-2 14 -9 63 -15 110 -13 97 -20 143 -26 174 -2 11 -7 39 -10 61 -2 22 -16 101
-30 175 -13 74 -31 169 -39 212 -7 42 -18 94 -24 115 -6 21 -13 54 -16 73 -15
94 -142 582 -185 712 -383 1164 -1277 2084 -2432 2502 -231 83 -532 160 -748
190 -19 3 -69 10 -110 16 -41 6 -102 13 -135 16 -94 9 -572 12 -655 4z"/>
<path d="M13087 14804 c-1 -1 -50 -5 -109 -8 -58 -4 -117 -9 -130 -11 -12 -2
-48 -6 -79 -10 -31 -3 -67 -8 -80 -10 -13 -3 -41 -7 -64 -10 -137 -20 -580
-141 -670 -184 -11 -6 -65 -29 -120 -52 -244 -101 -510 -256 -730 -423 -44
-34 -85 -65 -91 -71 -6 -5 -36 -30 -65 -55 -58 -48 -336 -323 -383 -379 -214
-253 -431 -596 -540 -851 -15 -36 -31 -74 -36 -85 -73 -162 -191 -555 -215
-720 -14 -90 -16 -101 -20 -125 -37 -210 -48 -638 -21 -840 3 -19 8 -60 11
-90 4 -30 8 -67 11 -82 19 -125 40 -233 58 -300 9 -31 17 -68 20 -82 3 -14 7
-29 9 -33 6 -10 51 -215 61 -283 20 -126 21 -134 31 -235 4 -38 8 -86 10 -105
5 -49 5 -377 1 -420 -2 -19 -7 -69 -10 -110 -7 -71 -12 -113 -21 -169 -2 -13
-7 -45 -11 -70 -6 -48 -37 -187 -55 -256 -28 -101 -19 -143 37 -170 86 -41
135 12 169 185 2 8 4 15 5 15 2 0 5 15 19 90 6 33 13 69 15 80 5 25 24 148 30
195 27 195 28 621 1 830 -20 151 -55 332 -96 492 -16 64 -32 127 -35 140 -12
57 -25 126 -30 157 -3 18 -7 43 -10 55 -2 11 -6 45 -10 74 -3 29 -7 62 -9 74
-17 88 -24 438 -11 588 13 151 16 183 37 310 47 284 137 576 255 827 19 40 34
77 34 82 0 5 7 14 15 21 8 7 15 18 15 26 0 16 125 232 193 334 428 638 1057
1104 1790 1326 90 27 310 80 372 89 22 4 49 8 60 10 11 1 36 6 55 9 214 35
692 42 860 11 14 -2 70 -11 125 -19 114 -18 153 -25 177 -32 9 -3 26 -7 39 -9
280 -54 704 -228 999 -410 83 -52 309 -209 320 -224 3 -3 30 -26 60 -51 272
-221 537 -532 729 -855 143 -240 295 -604 346 -825 1 -8 15 -58 29 -110 14
-52 46 -186 71 -298 49 -223 47 -211 75 -367 11 -60 22 -119 24 -130 6 -33 19
-109 22 -130 1 -11 5 -40 8 -65 3 -25 9 -58 12 -73 6 -31 9 -48 19 -147 4 -36
9 -72 10 -80 7 -40 15 -100 19 -150 3 -30 8 -77 11 -105 7 -73 14 -147 21
-255 3 -52 8 -113 10 -135 3 -22 7 -229 10 -460 6 -455 5 -450 62 -479 23 -12
33 -12 66 -1 42 15 57 32 68 79 7 33 2 707 -6 801 -3 33 -8 107 -11 165 -3 58
-7 121 -10 140 -2 19 -6 69 -10 110 -3 41 -8 93 -10 115 -3 22 -7 61 -10 88
-3 26 -7 68 -10 95 -3 26 -9 76 -15 112 -5 36 -12 85 -15 110 -11 79 -16 114
-25 170 -5 30 -12 72 -16 94 -3 21 -8 48 -10 60 -2 11 -13 68 -24 126 -25 134
-25 136 -56 277 -14 65 -27 129 -30 143 -15 80 -111 434 -145 540 -199 610
-547 1127 -1059 1575 -168 146 -461 340 -686 453 -287 144 -673 275 -934 317
-19 3 -57 10 -85 15 -27 5 -77 12 -110 16 -33 3 -67 8 -76 9 -58 11 -492 27
-502 19z"/>
<path d="M13038 14315 c-1 -1 -39 -5 -83 -9 -44 -3 -95 -8 -113 -11 -84 -11
-118 -16 -132 -20 -8 -2 -33 -6 -55 -10 -160 -23 -472 -120 -665 -207 -463
-207 -853 -516 -1166 -923 -298 -388 -503 -861 -579 -1340 -21 -137 -23 -153
-31 -250 -14 -159 -7 -481 12 -605 29 -190 46 -276 83 -421 45 -174 80 -354
97 -494 3 -22 7 -53 9 -70 19 -143 26 -506 12 -685 -8 -118 -9 -126 -52 -410
-6 -38 -45 -212 -50 -220 -2 -4 -7 -21 -10 -38 -8 -49 -73 -257 -111 -358 -39
-105 -42 -141 -14 -177 48 -61 133 -48 168 26 91 198 217 694 248 977 10 96
13 129 20 235 12 177 4 600 -11 625 -2 3 -6 34 -9 70 -13 151 -48 340 -106
572 -46 181 -74 335 -87 478 -14 158 -6 589 11 619 2 3 7 33 10 66 4 33 11 76
16 95 5 19 12 49 15 65 4 26 30 133 39 160 1 6 8 30 15 55 67 241 209 541 369
775 257 377 570 663 973 887 167 94 462 215 589 243 8 2 60 15 115 28 322 82
667 99 1050 51 285 -35 650 -157 940 -313 130 -70 378 -231 415 -271 3 -3 32
-27 65 -55 149 -124 323 -309 434 -460 28 -38 54 -75 58 -80 73 -95 188 -301
273 -489 61 -136 160 -454 205 -666 2 -8 17 -76 34 -150 16 -74 32 -147 35
-162 2 -15 12 -63 20 -105 18 -91 20 -99 46 -263 24 -146 26 -157 35 -230 4
-30 9 -62 10 -70 2 -8 6 -40 9 -70 4 -30 8 -68 10 -85 3 -16 7 -61 10 -100 4
-38 8 -83 10 -100 3 -16 7 -75 11 -130 4 -55 8 -114 10 -131 23 -200 23 -993
0 -1244 -2 -19 -6 -80 -10 -135 -4 -55 -8 -113 -10 -128 -2 -15 -6 -60 -10
-100 -4 -40 -9 -81 -11 -92 -2 -11 -7 -54 -10 -96 -6 -74 -6 -77 23 -108 33
-38 83 -44 126 -16 33 22 39 38 51 150 4 33 11 96 16 140 5 44 12 118 15 165
3 47 8 101 10 120 5 37 14 201 21 360 9 242 4 726 -11 947 -2 37 -7 104 -10
148 -3 44 -7 100 -10 125 -3 25 -7 68 -10 95 -11 112 -16 162 -20 195 -11 93
-27 208 -30 230 -2 14 -7 43 -9 65 -3 22 -8 50 -10 62 -3 11 -8 43 -12 70 -3
26 -8 57 -10 68 -2 11 -11 58 -19 105 -8 47 -17 94 -19 105 -68 333 -147 662
-201 835 -57 178 -162 416 -250 566 -25 41 -45 78 -45 80 0 9 -136 203 -199
284 -154 199 -367 408 -563 553 -78 57 -254 177 -261 177 -3 0 -31 16 -63 36
-74 44 -264 136 -364 176 -150 60 -381 130 -500 152 -14 3 -50 10 -80 16 -134
27 -301 42 -502 45 -119 2 -218 2 -220 0z"/>
<path d="M13147 13834 c-1 -1 -50 -5 -109 -8 -58 -4 -115 -8 -125 -10 -10 -2
-40 -7 -66 -10 -316 -43 -721 -192 -970 -357 -32 -22 -60 -39 -62 -39 -3 0
-42 -28 -87 -62 -432 -321 -740 -743 -907 -1244 -61 -181 -83 -281 -120 -544
-9 -66 -8 -485 2 -530 3 -14 8 -47 12 -74 13 -102 34 -199 90 -416 12 -47 64
-313 70 -359 4 -30 8 -61 10 -70 1 -9 6 -47 10 -86 4 -38 9 -78 11 -88 14 -72
20 -496 10 -647 -11 -158 -27 -296 -47 -415 -16 -94 -16 -96 -32 -180 -45
-233 -161 -607 -252 -810 -52 -117 -75 -177 -75 -198 0 -36 54 -87 90 -87 59
0 81 20 125 115 109 233 237 618 290 870 14 65 45 232 50 270 3 22 8 47 10 55
2 8 7 47 11 85 3 39 8 79 10 90 19 99 25 606 10 815 -4 63 -9 117 -11 120 -2
3 -6 37 -9 75 -4 39 -9 77 -11 85 -4 15 -13 70 -21 125 -8 62 -37 196 -79 365
-50 203 -62 269 -81 438 -6 60 -7 356 0 402 3 19 8 58 11 85 22 187 81 411
160 600 32 79 113 243 148 300 36 59 147 219 196 280 65 82 245 265 316 321
27 21 55 44 61 49 14 13 135 97 204 141 143 93 387 202 570 254 243 70 451 98
695 94 422 -7 818 -122 1180 -343 441 -269 789 -694 970 -1186 33 -88 155
-548 169 -637 3 -18 12 -67 21 -108 9 -41 18 -86 21 -100 2 -14 11 -59 19
-100 8 -41 17 -93 20 -115 3 -22 7 -51 10 -65 2 -13 7 -42 10 -65 3 -22 8 -51
10 -65 2 -14 7 -43 9 -65 3 -22 10 -76 16 -120 5 -44 12 -105 15 -135 4 -30 8
-68 10 -85 2 -16 7 -68 10 -115 4 -47 9 -101 11 -120 26 -266 26 -1065 -1
-1340 -1 -19 -6 -73 -10 -120 -3 -47 -8 -98 -10 -115 -2 -16 -6 -55 -10 -85
-13 -118 -17 -148 -30 -240 -8 -52 -17 -117 -21 -145 -3 -27 -8 -59 -10 -70
-2 -11 -13 -74 -25 -140 -11 -66 -31 -172 -45 -235 -13 -63 -24 -125 -24 -137
0 -30 44 -80 77 -86 39 -7 89 16 106 50 13 25 77 331 92 438 3 22 10 63 15 90
5 28 18 120 30 205 30 227 27 204 44 375 5 50 13 150 21 255 24 312 25 1042 1
1260 -2 19 -7 78 -10 130 -3 52 -8 106 -10 120 -3 14 -7 54 -10 90 -8 86 -19
177 -51 410 -5 36 -34 211 -40 240 -3 14 -10 52 -15 85 -41 233 -138 645 -195
826 -210 672 -718 1244 -1364 1535 -113 51 -350 136 -412 148 -13 2 -64 13
-114 24 -49 11 -115 24 -145 27 -30 4 -57 8 -60 10 -13 7 -375 25 -383 19z"/>
<path d="M13089 13346 c-2 -2 -42 -7 -89 -11 -46 -3 -87 -8 -90 -10 -3 -2 -23
-6 -45 -9 -96 -15 -302 -70 -360 -96 -11 -5 -45 -19 -75 -30 -30 -12 -102 -46
-160 -77 -434 -228 -761 -591 -947 -1048 -39 -96 -77 -212 -86 -265 -3 -14
-10 -43 -15 -65 -6 -22 -13 -58 -17 -80 -3 -23 -7 -52 -10 -65 -10 -51 -18
-178 -18 -280 -1 -200 17 -321 88 -610 24 -97 45 -189 48 -205 3 -17 12 -70
21 -120 17 -100 24 -145 30 -190 2 -16 7 -52 11 -80 3 -27 8 -63 10 -80 27
-213 27 -732 0 -955 -2 -19 -7 -60 -10 -90 -3 -30 -8 -62 -10 -70 -2 -8 -7
-37 -10 -65 -42 -379 -221 -959 -422 -1366 -61 -123 -66 -145 -46 -187 27 -56
100 -71 151 -30 22 18 148 284 215 453 46 117 117 319 157 450 47 154 130 540
145 680 3 28 8 57 10 65 2 8 7 51 11 95 3 44 8 89 10 100 23 121 22 674 -1
905 -10 90 -26 216 -35 270 -5 30 -12 73 -15 95 -3 22 -15 85 -27 140 -11 55
-22 108 -23 118 -2 9 -19 79 -38 155 -19 75 -37 153 -41 172 -3 19 -8 45 -10
57 -26 133 -27 499 -1 576 2 7 6 28 9 47 16 99 55 234 103 353 99 247 240 455
430 637 108 104 126 119 228 189 116 80 109 75 240 140 190 94 382 152 590
178 79 10 372 10 455 0 272 -33 595 -159 825 -321 125 -88 254 -206 357 -327
132 -156 274 -414 337 -610 31 -99 111 -419 136 -544 8 -38 17 -81 19 -95 12
-54 25 -122 32 -165 3 -16 7 -41 10 -55 8 -47 34 -205 38 -240 36 -256 47
-354 61 -540 4 -41 8 -95 10 -120 23 -267 23 -900 1 -1150 -2 -19 -7 -78 -10
-130 -4 -52 -9 -108 -11 -125 -2 -16 -7 -57 -10 -90 -3 -33 -8 -73 -10 -90
-21 -167 -33 -258 -41 -300 -2 -10 -6 -37 -9 -60 -5 -34 -18 -109 -42 -235
-38 -206 -115 -530 -178 -750 -30 -106 -33 -129 -24 -157 14 -42 44 -63 91
-63 61 0 84 29 118 150 31 106 100 374 120 465 7 28 13 57 15 65 10 43 75 381
80 415 4 22 8 47 10 55 2 8 7 38 11 65 3 28 8 57 9 66 2 9 6 40 10 69 4 29 8
60 10 69 2 9 6 44 10 76 3 33 9 78 12 100 6 49 10 85 18 199 4 48 8 96 10 106
27 139 27 1075 0 1355 -2 22 -7 72 -10 110 -9 101 -15 155 -20 195 -3 19 -7
60 -11 90 -9 94 -52 374 -79 518 -144 762 -247 1054 -488 1382 -268 362 -636
617 -1092 753 -78 24 -227 53 -320 63 -60 6 -351 14 -356 10z"/>
<path d="M13199 12866 c-2 -2 -49 -7 -103 -10 -55 -4 -102 -9 -105 -10 -3 -2
-28 -7 -56 -11 -27 -3 -90 -18 -139 -32 -80 -23 -109 -33 -181 -62 -59 -24
-199 -99 -260 -139 -221 -147 -404 -355 -525 -597 -54 -108 -111 -259 -124
-325 -2 -14 -9 -45 -15 -70 -17 -77 -25 -171 -26 -300 0 -175 11 -262 55 -426
22 -83 59 -242 66 -284 2 -14 9 -45 14 -70 6 -25 17 -88 25 -140 8 -52 17
-111 20 -131 8 -52 14 -104 21 -189 3 -41 7 -81 10 -88 5 -18 18 -315 18 -437
0 -104 -12 -380 -19 -450 -2 -22 -7 -69 -10 -105 -4 -36 -8 -72 -10 -80 -1 -8
-6 -42 -9 -75 -4 -33 -9 -67 -11 -75 -2 -8 -6 -33 -9 -55 -4 -22 -11 -62 -16
-90 -5 -27 -12 -61 -14 -75 -8 -41 -45 -212 -55 -250 -111 -425 -218 -714
-412 -1105 -54 -110 -68 -146 -63 -170 13 -73 99 -105 155 -58 41 35 182 324
288 591 97 244 186 529 247 795 19 82 63 308 69 357 3 25 8 56 10 70 8 51 16
113 30 237 14 127 19 259 20 538 0 333 -8 476 -40 705 -2 14 -7 45 -10 70 -10
75 -34 209 -56 315 -31 151 -35 170 -69 302 -79 314 -67 580 41 858 146 378
450 668 831 796 50 17 100 32 110 34 11 2 27 6 36 9 9 3 33 8 52 11 221 33
377 26 575 -25 210 -55 372 -139 541 -280 179 -150 331 -371 403 -586 31 -92
114 -423 135 -534 2 -14 11 -59 20 -100 8 -41 18 -88 20 -105 3 -16 16 -97 30
-180 13 -82 28 -175 31 -205 4 -30 9 -62 10 -70 1 -8 6 -46 10 -85 4 -38 8
-77 10 -85 2 -9 6 -60 10 -115 4 -55 9 -107 10 -115 26 -138 26 -979 0 -1240
-2 -19 -6 -70 -10 -113 -3 -43 -8 -86 -9 -95 -2 -9 -7 -53 -12 -97 -4 -44 -8
-82 -9 -85 -1 -3 -5 -34 -9 -70 -5 -36 -10 -74 -12 -85 -2 -11 -6 -36 -9 -55
-8 -61 -16 -115 -20 -130 -2 -8 -7 -35 -10 -60 -3 -25 -8 -53 -11 -62 -3 -9
-7 -27 -9 -40 -18 -93 -30 -150 -57 -268 -16 -74 -31 -142 -33 -150 -2 -8 -13
-51 -24 -95 -12 -44 -23 -87 -25 -95 -9 -37 -39 -140 -57 -196 -11 -33 -21
-69 -23 -80 -3 -10 -34 -105 -70 -211 -36 -106 -66 -205 -66 -221 0 -89 126
-123 176 -47 27 41 189 539 230 703 2 9 24 98 49 197 24 99 47 191 49 205 3
14 7 36 10 50 25 112 67 342 81 445 3 22 8 51 10 65 8 43 14 83 24 165 22 173
23 185 36 345 3 47 8 101 10 120 23 207 23 986 1 1165 -3 17 -7 71 -11 120 -4
50 -8 104 -10 120 -2 17 -6 59 -10 95 -3 36 -8 72 -10 80 -2 8 -7 44 -10 80
-4 36 -8 72 -10 80 -1 8 -6 40 -11 70 -4 30 -8 57 -9 60 -1 3 -5 30 -9 60 -5
30 -19 111 -32 180 -14 69 -27 141 -30 160 -3 19 -8 38 -10 41 -2 3 -6 21 -9
40 -3 19 -11 54 -16 79 -6 25 -12 52 -14 60 -16 76 -72 283 -97 360 -126 387
-432 727 -812 905 -82 38 -255 98 -316 109 -109 21 -213 34 -274 35 -38 1 -72
4 -76 6 -4 3 -9 3 -11 1z"/>
<path d="M13065 12364 c-402 -60 -730 -332 -861 -716 -20 -60 -33 -113 -49
-203 -6 -36 -7 -201 -1 -267 3 -25 25 -129 49 -230 39 -158 52 -217 82 -368 6
-28 25 -145 30 -175 1 -11 6 -42 10 -70 13 -91 14 -100 20 -155 24 -224 30
-339 30 -630 0 -250 -7 -454 -20 -531 -2 -13 -6 -56 -9 -95 -4 -39 -8 -80 -10
-90 -2 -11 -7 -44 -10 -74 -18 -143 -117 -633 -136 -670 -4 -8 -10 -31 -14
-51 -13 -73 -129 -420 -203 -604 -41 -104 -122 -287 -180 -405 -58 -118 -107
-226 -108 -239 -11 -83 96 -134 162 -79 15 12 186 350 230 453 100 239 168
419 226 605 36 114 94 317 101 355 3 11 13 58 24 105 21 86 65 317 78 400 3
25 8 52 9 60 2 9 6 43 10 75 4 33 9 67 10 76 2 9 6 52 10 95 4 43 8 90 11 104
23 142 23 838 0 1005 -3 17 -7 62 -10 100 -3 39 -8 79 -10 90 -3 16 -13 98
-21 170 -11 91 -69 383 -117 580 -47 191 -51 220 -51 325 1 235 87 443 250
608 131 132 260 201 468 249 11 2 70 6 130 8 337 11 649 -175 801 -477 29 -58
82 -220 98 -298 3 -14 7 -34 10 -45 37 -155 55 -235 59 -260 3 -16 10 -52 16
-80 6 -27 13 -61 15 -75 2 -14 7 -36 10 -50 4 -14 8 -38 10 -55 2 -16 9 -59
15 -95 6 -36 13 -85 16 -110 3 -25 7 -54 9 -65 2 -11 7 -49 10 -85 4 -36 9
-76 11 -90 2 -14 7 -54 10 -90 3 -36 8 -81 10 -100 4 -36 11 -140 20 -315 17
-296 1 -838 -30 -1095 -3 -19 -7 -60 -10 -90 -8 -74 -27 -224 -40 -310 -6 -40
-44 -263 -50 -290 -2 -14 -7 -38 -11 -55 -86 -440 -245 -965 -423 -1400 -23
-54 -41 -112 -41 -128 0 -44 48 -87 97 -87 73 1 82 17 208 350 84 225 157 448
210 640 20 74 42 158 50 185 16 59 55 216 60 248 3 12 11 54 19 92 17 79 21
95 42 215 18 100 21 122 29 175 4 22 8 47 10 55 2 8 7 42 11 75 3 33 8 68 9
77 2 9 7 48 10 85 4 37 9 77 11 88 2 11 6 54 10 95 3 41 7 91 9 110 27 222 27
1009 0 1245 -2 17 -6 64 -9 105 -6 72 -41 368 -50 420 -3 14 -10 59 -16 100
-14 93 -47 271 -60 325 -5 22 -12 54 -14 70 -3 17 -13 62 -21 100 -9 39 -18
77 -20 86 -37 171 -86 323 -141 429 -207 401 -651 630 -1099 564z"/>
<path d="M13080 11874 c-30 -8 -88 -30 -129 -50 -145 -68 -270 -230 -305 -394
-13 -60 -14 -187 -2 -235 75 -308 118 -503 131 -600 3 -22 10 -65 15 -95 30
-174 49 -356 66 -615 14 -202 7 -703 -11 -850 -2 -16 -7 -61 -10 -100 -4 -38
-8 -81 -10 -95 -2 -14 -6 -50 -10 -80 -6 -49 -38 -262 -51 -333 -2 -15 -11
-59 -19 -97 -8 -38 -17 -82 -20 -97 -2 -16 -16 -75 -31 -133 -14 -58 -27 -112
-29 -120 -3 -8 -11 -40 -20 -70 -9 -30 -23 -80 -31 -110 -42 -156 -162 -490
-254 -705 -23 -55 -83 -183 -133 -285 -98 -200 -106 -233 -67 -275 30 -32 70
-39 113 -21 32 13 43 30 130 208 135 275 226 493 319 768 43 126 113 355 123
400 2 8 12 51 23 95 25 97 68 287 76 335 3 19 8 46 11 60 5 25 33 194 40 240
6 38 17 123 29 225 4 36 13 127 21 225 7 77 18 372 18 485 0 121 -11 414 -18
470 -2 17 -7 64 -10 105 -3 41 -8 87 -9 103 -2 15 -7 55 -11 90 -4 34 -9 69
-10 79 -2 9 -6 38 -10 65 -24 181 -76 437 -150 738 -36 148 3 285 109 383 76
70 158 103 259 103 149 1 279 -78 347 -211 23 -47 33 -74 46 -135 1 -5 13 -55
27 -110 36 -144 54 -228 73 -330 9 -49 18 -99 20 -110 2 -11 6 -33 9 -50 3
-16 7 -41 10 -55 3 -14 7 -45 10 -70 3 -25 7 -56 10 -70 6 -35 13 -86 20 -150
3 -30 8 -68 10 -85 2 -16 7 -66 10 -110 4 -44 8 -91 11 -105 24 -151 23 -862
-1 -1130 -12 -128 -42 -386 -51 -440 -2 -14 -11 -72 -19 -129 -9 -57 -17 -107
-19 -110 -2 -3 -7 -26 -10 -51 -7 -51 -6 -46 -40 -202 -107 -489 -293 -1052
-480 -1452 -47 -102 -54 -137 -35 -179 28 -61 129 -64 165 -4 41 68 238 535
249 590 2 9 7 21 10 27 6 10 94 262 101 290 2 8 24 83 49 165 84 281 161 618
201 880 3 17 9 55 14 85 5 30 12 78 15 105 4 28 8 60 10 71 2 12 6 48 10 80 4
33 9 70 11 84 2 14 6 66 9 115 4 50 8 106 10 125 24 207 23 749 -1 1065 -7 94
-24 269 -29 305 -2 14 -6 50 -10 80 -3 30 -8 66 -10 80 -2 14 -7 45 -10 70
-34 253 -137 732 -190 884 -63 177 -203 308 -387 364 -78 23 -220 26 -298 6z"/>
<path d="M13185 11399 c-32 -9 -65 -53 -65 -87 0 -11 18 -93 39 -183 22 -90
42 -179 46 -197 3 -18 12 -63 19 -100 28 -131 69 -386 81 -507 3 -33 10 -96
15 -140 5 -44 12 -127 15 -185 4 -58 8 -125 10 -150 6 -53 6 -547 1 -605 -2
-22 -7 -89 -11 -150 -3 -60 -8 -128 -10 -150 -8 -81 -16 -161 -20 -185 -2 -14
-7 -50 -10 -80 -3 -30 -8 -62 -10 -70 -2 -8 -7 -36 -10 -62 -8 -76 -15 -114
-47 -273 -16 -82 -31 -159 -34 -171 -2 -11 -22 -93 -44 -181 -106 -423 -261
-856 -444 -1237 -91 -190 -90 -188 -76 -231 21 -63 105 -86 152 -42 13 13 41
59 62 102 20 44 46 96 56 115 37 70 169 389 228 550 119 325 233 734 297 1060
13 66 65 407 70 455 3 33 7 67 9 75 3 8 7 51 11 95 3 44 8 96 10 115 20 191
26 742 12 960 -4 58 -10 137 -12 175 -3 39 -7 86 -9 105 -3 19 -8 60 -11 90
-11 102 -18 152 -50 365 -25 166 -124 609 -150 671 -20 49 -64 68 -120 53z"/>
</g>
</svg>
